<svg width="174" height="192" viewBox="0 0 174 192" fill="none" xmlns="http://www.w3.org/2000/svg">
<g filter="url(#filter0_f_346_1226)">
<ellipse cx="128.331" cy="88.6642" rx="73.6308" ry="23.9143" transform="rotate(-99.995 128.331 88.6642)" fill="#251053" fill-opacity="0.59"/>
</g>
<path d="M41.9215 33.5982L59.3457 24.7875C60.9512 24.0442 62.3894 23.4354 64.0962 23.1601C81.466 20.4395 107.862 43.9792 125.947 79.4344C144.032 114.89 147.82 150.04 135.627 162.609C134.424 163.852 133.087 164.929 131.649 165.538L114.225 174.348C111.482 175.732 108.537 176.18 105.189 176.128L90.6335 147.45C81.6082 137.954 72.7772 125.278 65.2145 110.756C57.819 96.0996 52.7001 81.5332 50.2965 68.628L35.7411 39.9497C36.9738 37.0332 39.1791 34.9823 41.9215 33.5982Z" fill="url(#paint0_linear_346_1226)"/>
<path d="M41.9303 33.6022C58.7188 25.0285 88.6659 49.5562 108.499 88.5505C128.499 127.41 130.989 166.08 114.033 174.788C111.291 176.172 108.346 176.62 104.998 176.568C87.9208 175.205 64.3054 152.724 47.4319 120.141C30.7256 87.4237 26.1727 55.0872 35.2485 40.3575C36.9825 37.0372 39.1879 34.9863 41.9303 33.6022Z" fill="url(#paint1_linear_346_1226)"/>
<path d="M92.9653 137.33C94.3764 139.766 95.519 141.869 96.6287 144.273C97.1329 145.241 97.47 146.344 97.3714 147.248C97.3742 148.62 96.0702 149.395 94.7961 148.497C93.9577 147.799 93.2864 146.965 92.6151 146.131C91.3383 143.862 90.1957 141.759 88.9517 139.188C86.6778 140.469 84.4367 141.45 82.3299 142.597C81.0259 143.372 80.1218 143.276 79.182 142.109C78.5107 141.275 77.8722 140.14 77.5351 139.038C77.0967 137.467 77.6308 136.762 78.9349 135.987C82.9814 133.827 86.8607 131.802 90.9072 129.643C93.6496 128.259 94.9508 126.111 95.2794 123.098C95.7694 117.207 92.0402 110.866 86.8454 108.179C84.533 107.018 82.3906 107.095 80.1167 108.376C78.0099 109.523 75.9032 110.67 73.7964 111.817C70.5527 113.605 67.2046 113.553 64.0209 111.994C55.6425 107.749 49.2253 96.7017 49.9425 87.3294C50.1697 83.8485 50.9668 80.7331 53.942 78.6118C54.7776 77.9389 55.9144 77.298 57.2185 76.5226C56.3444 74.753 55.4375 73.2848 54.5634 71.5153C53.6893 69.7457 52.6809 67.8094 51.8068 66.0399C51.4369 65.2384 51.2341 64.3025 51.1655 63.5332C51.1627 62.1613 52.4669 61.386 53.6067 62.1171C54.4451 62.816 55.1164 63.6496 55.6205 64.6177C57.4016 67.8555 59.0154 71.2278 60.9308 74.6323C61.0979 74.4977 61.3992 74.5298 61.7334 74.2606C63.506 73.3828 65.2785 72.5049 67.084 71.3258C68.2209 70.685 69.525 69.9096 70.7662 71.1086C72.1416 72.4744 73.0486 73.9428 72.6844 75.8851C72.6187 76.4877 71.9502 77.026 71.3146 77.2631C67.101 79.5571 63.0545 81.7165 58.7066 83.8439C56.5998 84.9909 55.4986 86.7024 55.1015 88.9461C53.7102 96.1129 58.5791 103.185 64.1081 105.603C65.8506 106.398 67.826 106.456 69.6314 105.277C72.0724 103.861 74.4807 102.746 76.9217 101.33C79.5298 99.7793 82.1079 99.9016 84.8888 100.96C88.9766 102.615 92.1631 105.545 94.8154 109.181C98.6761 114.317 100.663 119.862 100.107 126.356C99.9427 127.863 99.6114 129.504 98.9786 131.113C98.2801 133.324 96.7432 134.837 94.6364 135.984C94.2693 136.554 93.768 136.958 92.9653 137.33Z" fill="url(#paint2_linear_346_1226)"/>
<defs>
<filter id="filter0_f_346_1226" x="85.5308" y="0.03125" width="85.6006" height="177.266" filterUnits="userSpaceOnUse" color-interpolation-filters="sRGB">
<feFlood flood-opacity="0" result="BackgroundImageFix"/>
<feBlend mode="normal" in="SourceGraphic" in2="BackgroundImageFix" result="shape"/>
<feGaussianBlur stdDeviation="8" result="effect1_foregroundBlur_346_1226"/>
</filter>
<linearGradient id="paint0_linear_346_1226" x1="131.51" y1="165.521" x2="59.2028" y2="24.6297" gradientUnits="userSpaceOnUse">
<stop stop-color="#443BBC"/>
<stop offset="0.8819" stop-color="#9D9AF0"/>
</linearGradient>
<linearGradient id="paint1_linear_346_1226" x1="120.758" y1="187.506" x2="27.6709" y2="6.12285" gradientUnits="userSpaceOnUse">
<stop stop-color="#443BE2"/>
<stop offset="1" stop-color="#FCFFFF"/>
</linearGradient>
<linearGradient id="paint2_linear_346_1226" x1="97.0406" y1="148.597" x2="51.5988" y2="62.1212" gradientUnits="userSpaceOnUse">
<stop stop-color="#443BBC"/>
<stop offset="0.8819" stop-color="#9D9AF0"/>
</linearGradient>
</defs>
</svg>
