<svg width="388" height="720" viewBox="0 0 388 720" fill="none" xmlns="http://www.w3.org/2000/svg">
<g opacity="0.8">
<g filter="url(#filter0_f_101_78)">
<path d="M277.09 638.66L275.088 610.313L247.225 611.367L243.075 602.739L245.061 600.597L255.776 588.822L256.074 588.501L255.765 588.513L254.924 588.131L223.665 573.19L206.876 585.608L187.385 578.49L186.831 563.835L144.588 564.503L140.47 581.299L121.498 587.908L103.709 573.904L73.8682 596.428L86.7979 604.93L89.3409 606.591L87.8253 618.431L82.1573 618.852L82.0541 618.856L56.183 620.661L57.2919 649.972L89.902 648.738L95.0841 657.328L84.6835 666.506L75.4862 674.709L75.8036 674.904L88.7505 681.132L96.5394 684.868L96.6425 684.864L105.903 689.268L129.468 675.664L149.465 679.765L150.129 697.31L188.828 695.846L193.486 679.65L193.943 678.083L194.046 678.079L215.775 673.329L215.879 673.325L232.664 685.403L232.866 685.292L242.921 677.883L243.222 677.665L250.259 672.438L260.412 664.923L260.393 664.407L254.193 658.957L243.819 649.737L251.085 639.643L277.09 638.66ZM214.92 626.129C214.924 626.232 214.928 626.335 214.932 626.438C214.936 626.541 214.936 626.541 214.939 626.645C214.947 626.851 214.955 627.057 214.856 627.165C214.864 627.371 214.868 627.474 214.768 627.581C214.772 627.684 214.78 627.891 214.681 627.998C214.688 628.204 214.597 628.518 214.605 628.724C214.605 628.724 214.605 628.724 214.609 628.828C214.616 629.034 214.521 629.244 214.43 629.558C214.437 629.764 214.342 629.975 214.243 630.082C214.151 630.395 214.056 630.606 213.964 630.919C213.968 631.022 213.869 631.129 213.873 631.233C213.781 631.546 213.686 631.756 213.594 632.07C213.503 632.383 213.308 632.701 213.213 632.911C213.114 633.018 213.118 633.122 213.018 633.229C212.824 633.546 212.732 633.86 212.537 634.177C206.343 645.264 188.163 653.703 166.492 654.523C144.821 655.343 126.056 648.301 119.041 637.714C118.823 637.412 118.708 637.107 118.49 636.805C118.383 636.705 118.379 636.602 118.272 636.503C118.157 636.197 117.939 635.895 117.828 635.693C117.713 635.387 117.602 635.185 117.487 634.879C117.483 634.776 117.376 634.676 117.372 634.573C117.257 634.267 117.146 634.065 117.032 633.759C116.921 633.557 116.913 633.35 116.806 633.251C116.695 633.049 116.687 632.842 116.572 632.536L116.568 632.433C116.56 632.227 116.449 632.024 116.437 631.715C116.43 631.508 116.323 631.409 116.319 631.306C116.311 631.099 116.307 630.996 116.2 630.897C116.192 630.69 116.184 630.484 116.077 630.385C116.073 630.281 116.073 630.281 116.069 630.178C116.065 630.075 116.062 629.972 116.058 629.869C116.05 629.662 116.038 629.353 116.03 629.146C115.46 614.078 137.08 600.961 164.324 599.93C191.567 598.9 214.116 610.346 214.686 625.414C215.004 625.609 215.011 625.815 214.92 626.129Z" fill="#443BE2" fill-opacity="0.5"/>
</g>
<path d="M276.614 624.095L275.54 595.713L247.677 596.767L243.527 588.139L245.513 585.997L256.228 574.222L256.526 573.901L256.316 573.806L255.475 573.424L224.113 558.487L207.324 570.905L187.833 563.787L187.279 549.132L145.036 549.8L140.918 566.596L121.946 573.204L104.157 559.201L74.5264 581.82L87.4561 590.322L89.9992 591.983L88.4835 603.823L82.8155 604.244L82.7124 604.248L56.8412 606.054L57.9501 635.364L90.5602 634.131L95.7423 642.72L85.3417 651.898L76.4423 659.78L76.1405 659.998L76.4579 660.193L89.4049 666.421L97.1937 670.157L97.2969 670.153L106.455 674.561L106.558 674.557L114.042 670.243L130.122 660.953L130.329 660.945L130.432 660.942L150.12 665.054L150.561 676.717L151.093 682.588L189.482 681.136L194.14 664.939L194.597 663.372L194.701 663.368L216.021 658.737L216.43 658.618L216.533 658.614L217.703 659.5L233.49 669.755L261.166 650.105L261.154 649.795L244.37 635.03L251.636 624.936L276.61 623.992L276.614 624.095ZM215.471 611.422C215.475 611.525 215.479 611.628 215.483 611.731C215.487 611.834 215.487 611.834 215.491 611.938C215.498 612.144 215.506 612.35 215.407 612.458C215.415 612.664 215.419 612.767 215.319 612.874C215.323 612.977 215.331 613.184 215.232 613.291C215.24 613.497 215.148 613.811 215.156 614.017C215.156 614.017 215.156 614.017 215.16 614.121C215.168 614.327 215.072 614.537 214.981 614.851C214.989 615.057 214.893 615.268 214.794 615.375C214.702 615.688 214.607 615.898 214.515 616.212C214.519 616.315 214.42 616.422 214.424 616.526C214.333 616.839 214.237 617.049 214.146 617.363C214.054 617.676 213.859 617.994 213.764 618.204C213.665 618.311 213.669 618.415 213.569 618.522C213.375 618.839 213.283 619.153 213.089 619.47C206.894 630.557 188.715 638.996 167.043 639.816C145.372 640.636 126.607 633.594 119.593 623.007C119.374 622.705 119.259 622.4 119.041 622.098C118.934 621.998 118.93 621.895 118.823 621.796C118.708 621.49 118.49 621.188 118.379 620.986C118.264 620.68 118.153 620.478 118.038 620.172C118.035 620.069 117.927 619.969 117.924 619.866C117.809 619.56 117.698 619.358 117.583 619.052C117.472 618.85 117.464 618.643 117.357 618.544C117.246 618.342 117.238 618.135 117.123 617.829L117.119 617.726C117.111 617.52 117 617.317 116.989 617.008C116.981 616.801 116.874 616.702 116.87 616.599C116.862 616.392 116.858 616.289 116.751 616.19C116.743 615.983 116.735 615.777 116.628 615.678C116.624 615.574 116.624 615.574 116.62 615.471C116.617 615.368 116.613 615.265 116.609 615.162C116.601 614.955 116.589 614.646 116.581 614.439C116.011 599.371 137.631 586.254 164.875 585.223C192.119 584.193 214.667 595.639 215.237 610.707C215.452 610.906 215.463 611.215 215.471 611.422Z" fill="url(#paint0_linear_101_78)"/>
<path d="M106.92 684.261L75.9904 669.825L75.6195 660.02L106.553 674.56L106.92 684.261Z" fill="url(#paint1_linear_101_78)"/>
<path d="M88.5884 601.344L74.4924 592.059L74.0863 581.325L90.1782 591.465L88.5884 601.344Z" fill="url(#paint2_linear_101_78)"/>
<path d="M256.811 573.376L243.606 587.622L246.895 595.352L257.221 584.213L256.811 573.376Z" fill="url(#paint3_linear_101_78)"/>
<path d="M188.961 681.158L150.881 682.598L151.252 692.403L189.332 690.963L188.961 681.158Z" fill="url(#paint4_linear_101_78)"/>
<path d="M261.117 649.08L261.562 660.845L233.95 679.46L233.946 679.357L232.512 668.766L255.276 653.125L261.117 649.08Z" fill="url(#paint5_linear_101_78)"/>
</g>
<path d="M248.073 607.181L243.923 598.553L252.26 589.453L252.955 588.703L252.951 588.6L256.819 584.319L245.138 578.766L241.876 577.236L224.406 568.905L207.617 581.323L188.126 574.205L187.572 559.55L145.329 560.218L141.211 577.014L122.239 583.622L104.451 569.619L87.4867 582.87L87.0817 583.092L75.8399 591.889L75.8477 592.096L80.7392 595.735L80.8424 595.731L82.5404 596.907L90.3917 602.294L90.3041 602.711L88.8721 614.031L57.226 616.158L58.3348 645.469L90.9449 644.235L91.496 645.145L95.6908 652.221L96.0238 652.828L95.722 653.046L89.1219 658.877L76.827 669.884L76.8348 670.091L97.261 680.067L97.4713 680.162L106.732 684.566L106.839 684.666L130.404 671.062L150.401 675.163L151.374 692.696L189.764 691.244L194.421 675.048L194.879 673.48L216.406 668.842L216.815 668.723L233.6 680.8L233.802 680.689L243.356 673.713L244.162 673.166L261.451 660.316L261.447 660.213L250.646 650.596L244.874 645.543L252.14 635.45L277.113 634.505L276.039 606.123L248.073 607.181ZM164.707 577.985C191.951 576.954 214.499 588.401 215.069 603.469C215.077 603.675 215.089 603.985 215.097 604.191C215.101 604.294 215.104 604.398 215.108 604.501C215.112 604.604 215.112 604.604 215.116 604.707C215.124 604.914 215.132 605.12 215.032 605.227C215.04 605.434 215.044 605.537 214.945 605.644C214.949 605.747 214.957 605.954 214.857 606.061C214.865 606.267 214.774 606.581 214.781 606.787C214.781 606.787 214.781 606.787 214.785 606.89C214.793 607.097 214.698 607.307 214.606 607.62C214.614 607.827 214.519 608.037 214.419 608.144C214.328 608.458 214.233 608.668 214.141 608.982C214.145 609.085 214.046 609.192 214.05 609.295C213.958 609.609 213.863 609.819 213.771 610.133C213.68 610.446 213.485 610.763 213.39 610.974C213.29 611.081 213.294 611.184 213.195 611.291C213 611.609 212.909 611.922 212.714 612.24C206.52 623.326 188.34 631.766 166.669 632.585C144.998 633.405 126.233 626.364 119.218 615.777C119 615.475 118.885 615.169 118.667 614.867C118.56 614.768 118.556 614.665 118.449 614.566C118.334 614.26 118.116 613.958 118.005 613.755C117.89 613.45 117.779 613.247 117.664 612.942C117.66 612.838 117.553 612.739 117.549 612.636C117.434 612.33 117.323 612.128 117.208 611.822C117.097 611.619 117.089 611.413 116.982 611.314C116.871 611.111 116.864 610.905 116.749 610.599L116.745 610.496C116.737 610.289 116.626 610.087 116.614 609.777C116.606 609.571 116.499 609.472 116.495 609.368C116.488 609.162 116.484 609.059 116.377 608.959C116.369 608.753 116.361 608.547 116.254 608.447C116.25 608.344 116.25 608.344 116.246 608.241C116.242 608.138 116.238 608.034 116.234 607.931C116.227 607.725 116.215 607.415 116.207 607.209C115.843 592.133 137.463 579.016 164.707 577.985Z" fill="url(#paint6_linear_101_78)"/>
<path d="M129.838 650.829L149.342 650.091L150.303 675.48L130.615 671.367L129.838 650.829Z" fill="url(#paint7_linear_101_78)"/>
<path d="M105.972 667.336L106.636 684.881L97.3749 680.477L97.1645 680.382L76.7383 670.405L76.0746 652.86L89.1287 659.188L96.8143 662.928L96.9175 662.924L105.972 667.336Z" fill="url(#paint8_linear_101_78)"/>
<path d="M189.417 673.998L189.152 691.578L151.278 693.011L150.305 675.477L189.417 673.998Z" fill="url(#paint9_linear_101_78)"/>
<path d="M215.958 651.494L216.622 669.039L216.419 669.15L194.789 673.793L194.332 675.36L194.328 656.137L194.232 645.391L215.958 651.494Z" fill="url(#paint10_linear_101_78)"/>
<path d="M260.684 642.876L261.352 660.525L244.063 673.375L243.261 674.025L233.707 681.001L233.047 663.559L243.097 656.048L243.399 655.83L250.435 650.602L260.684 642.876Z" fill="url(#paint11_linear_101_78)"/>
<path d="M259.326 582.262L252.157 589.458L237.606 603.651L233.94 583.222L255.208 566.294L255.946 566.68L256.057 566.882L259.326 582.262Z" fill="url(#paint12_linear_101_78)"/>
<path d="M98.1734 589.396L95.8444 607.054L90.2072 602.823L82.237 597.027L80.7455 595.843L80.6422 595.847L75.7508 592.208L75.7391 591.898L74.0511 574.598L87.3819 582.776L98.1734 589.396Z" fill="url(#paint13_linear_101_78)"/>
<path d="M247.409 589.638L243.259 581.01L245.245 578.868L255.961 567.093L256.258 566.772L256.048 566.677L255.207 566.295L223.845 551.358L207.057 563.776L187.565 556.658L187.011 542.003L144.768 542.671L140.65 559.467L121.678 566.076L103.89 552.072L74.2588 574.691L87.1884 583.194L89.7315 584.854L88.2159 596.694L82.5479 597.115L82.4447 597.119L56.5736 598.925L57.6825 628.236L90.2926 627.002L95.4747 635.591L85.0741 644.77L75.8767 652.972L76.1942 653.167L89.1411 659.395L96.9299 663.132L97.0332 663.128L106.294 667.532L129.859 653.928L149.237 658.052L150.829 675.562L189.218 674.11L193.876 657.914L194.334 656.346L194.437 656.342L216.166 651.593L216.269 651.589L233.055 663.666L243.311 656.147L243.613 655.929L250.649 650.702L260.803 643.186L261.105 642.968L244.206 627.897L251.472 617.804L276.445 616.859L275.372 588.477L247.405 589.535L247.409 589.638ZM215.096 604.193C215.1 604.297 215.104 604.4 215.108 604.503C215.112 604.606 215.112 604.606 215.116 604.709C215.124 604.916 215.131 605.122 215.032 605.229C215.04 605.436 215.044 605.539 214.945 605.646C214.949 605.749 214.956 605.956 214.857 606.063C214.865 606.269 214.773 606.583 214.781 606.789C214.781 606.789 214.781 606.789 214.785 606.892C214.793 607.099 214.697 607.309 214.606 607.623C214.614 607.829 214.518 608.039 214.419 608.146C214.328 608.46 214.232 608.67 214.141 608.984C214.145 609.087 214.045 609.194 214.049 609.297C213.958 609.611 213.862 609.821 213.771 610.135C213.679 610.448 213.485 610.766 213.389 610.976C213.29 611.083 213.294 611.186 213.195 611.293C213 611.611 212.909 611.924 212.714 612.242C206.519 623.328 188.34 631.768 166.669 632.588C144.997 633.407 126.232 626.366 119.218 615.779C119 615.477 118.885 615.171 118.667 614.869C118.56 614.77 118.556 614.667 118.449 614.568C118.334 614.262 118.116 613.96 118.005 613.758C117.89 613.452 117.779 613.249 117.664 612.944C117.66 612.84 117.553 612.741 117.549 612.638C117.434 612.332 117.323 612.13 117.208 611.824C117.097 611.622 117.089 611.415 116.982 611.316C116.871 611.113 116.863 610.907 116.748 610.601L116.744 610.498C116.737 610.292 116.626 610.089 116.614 609.779C116.606 609.573 116.499 609.474 116.495 609.371C116.487 609.164 116.483 609.061 116.376 608.962C116.368 608.755 116.361 608.549 116.254 608.449C116.25 608.346 116.25 608.346 116.246 608.243C116.242 608.14 116.238 608.037 116.234 607.933C116.226 607.727 116.214 607.417 116.207 607.211C115.637 592.143 137.256 579.026 164.5 577.995C191.744 576.964 214.293 588.411 214.863 603.479C215.184 603.777 215.192 603.983 215.096 604.193Z" fill="url(#paint14_linear_101_78)"/>
<path d="M215.179 603.575C215.296 606.672 214.477 609.597 212.931 612.446C205.917 601.859 187.152 594.817 165.48 595.637C143.809 596.457 125.63 604.896 119.435 615.983C117.679 613.259 116.64 610.404 116.523 607.308C115.953 592.239 137.573 579.122 164.817 578.092C192.061 577.061 214.605 588.404 215.179 603.575Z" fill="url(#paint15_linear_101_78)"/>
<g opacity="0.8">
<g filter="url(#filter1_f_101_78)">
<path d="M318.495 431.485L315.615 390.713L275.538 392.229L269.569 379.819L272.425 376.738L287.838 359.802L288.266 359.34L287.821 359.357L286.611 358.808L241.651 337.318L217.503 355.179L189.468 344.941L188.67 323.862L127.911 324.823L121.988 348.981L94.6993 358.487L69.1138 338.345L26.1921 370.741L44.7893 382.971L48.4471 385.36L46.2672 402.389L38.1147 402.995L37.9662 403.001L0.754772 405.598L2.34968 447.757L49.2541 445.982L56.7077 458.336L41.7481 471.538L28.5193 483.337L28.9758 483.617L47.5979 492.575L58.8009 497.949L58.9493 497.943L72.2696 504.278L106.163 484.71L134.926 490.609L135.881 515.845L191.543 513.739L198.242 490.444L198.9 488.189L199.049 488.183L230.303 481.352L230.451 481.346L254.594 498.718L254.886 498.558L269.347 487.903L269.781 487.589L279.902 480.07L294.506 469.26L294.478 468.518L285.56 460.679L270.64 447.418L281.09 432.9L318.495 431.485ZM229.072 413.461C229.078 413.61 229.084 413.758 229.089 413.907C229.095 414.055 229.095 414.055 229.1 414.204C229.112 414.501 229.123 414.797 228.98 414.951C228.991 415.248 228.997 415.397 228.854 415.551C228.86 415.699 228.871 415.996 228.728 416.15C228.739 416.447 228.608 416.898 228.619 417.195C228.619 417.195 228.619 417.195 228.625 417.343C228.636 417.64 228.499 417.943 228.367 418.394C228.378 418.691 228.241 418.993 228.098 419.147C227.967 419.598 227.83 419.901 227.698 420.352C227.704 420.5 227.561 420.654 227.566 420.803C227.435 421.254 227.298 421.556 227.166 422.007C227.034 422.458 226.754 422.915 226.617 423.217C226.474 423.371 226.48 423.52 226.337 423.674C226.057 424.13 225.926 424.581 225.646 425.038C216.736 440.984 190.588 453.123 159.417 454.302C128.246 455.481 101.256 445.353 91.1665 430.125C90.8527 429.691 90.6875 429.251 90.3738 428.817C90.2197 428.675 90.2141 428.526 90.06 428.383C89.8947 427.943 89.581 427.509 89.4213 427.218C89.2561 426.778 89.0964 426.487 88.9311 426.047C88.9255 425.899 88.7715 425.756 88.7659 425.608C88.6006 425.168 88.4409 424.877 88.2756 424.437C88.1159 424.146 88.1048 423.849 87.9507 423.706C87.7911 423.415 87.7798 423.118 87.6145 422.678L87.6089 422.53C87.5977 422.233 87.438 421.941 87.4211 421.496C87.4099 421.199 87.2559 421.056 87.2503 420.908C87.239 420.611 87.2335 420.463 87.0794 420.32C87.0682 420.023 87.0569 419.726 86.9028 419.583C86.8972 419.435 86.8972 419.435 86.8916 419.286C86.886 419.138 86.8804 418.989 86.8748 418.841C86.8635 418.544 86.8467 418.099 86.8354 417.802C86.0155 396.129 117.112 377.262 156.298 375.779C195.484 374.297 227.916 390.76 228.736 412.434C229.193 412.714 229.204 413.01 229.072 413.461Z" fill="#443BE2" fill-opacity="0.5"/>
</g>
<path d="M317.809 410.54L316.265 369.717L276.188 371.233L270.219 358.823L273.075 355.741L288.488 338.806L288.916 338.344L288.614 338.206L287.404 337.658L242.295 316.173L218.147 334.034L190.112 323.796L189.315 302.717L128.556 303.678L122.632 327.836L95.3439 337.342L69.7583 317.2L27.1391 349.734L45.7364 361.963L49.3942 364.352L47.2142 381.382L39.0617 381.987L38.9133 381.993L1.70179 384.59L3.2967 426.749L50.2012 424.974L57.6548 437.328L42.6952 450.53L29.8947 461.867L29.4607 462.181L29.9172 462.461L48.5394 471.419L59.7423 476.793L59.8908 476.787L73.0626 483.127L73.2111 483.122L83.976 476.917L107.105 463.554L107.402 463.543L107.55 463.537L135.868 469.453L136.502 486.228L137.268 494.672L192.484 492.583L199.184 469.288L199.842 467.033L199.99 467.027L230.656 460.367L231.244 460.196L231.393 460.19L233.076 461.465L255.782 476.215L295.59 447.95L295.573 447.505L271.433 426.268L281.883 411.75L317.803 410.391L317.809 410.54ZM229.865 392.311C229.871 392.459 229.877 392.608 229.882 392.756C229.888 392.905 229.888 392.905 229.893 393.053C229.905 393.35 229.916 393.647 229.773 393.801C229.784 394.098 229.79 394.246 229.647 394.4C229.653 394.549 229.664 394.846 229.521 395C229.532 395.297 229.401 395.748 229.412 396.045C229.412 396.045 229.412 396.045 229.418 396.193C229.429 396.49 229.292 396.792 229.16 397.243C229.171 397.54 229.034 397.843 228.891 397.997C228.76 398.448 228.623 398.75 228.491 399.201C228.497 399.35 228.354 399.504 228.359 399.652C228.228 400.103 228.091 400.406 227.959 400.857C227.827 401.308 227.547 401.764 227.41 402.067C227.267 402.221 227.273 402.369 227.13 402.523C226.85 402.98 226.719 403.431 226.439 403.887C217.529 419.834 191.381 431.972 160.21 433.151C129.039 434.331 102.049 424.202 91.9595 408.975C91.6458 408.541 91.4805 408.101 91.1668 407.667C91.0127 407.524 91.0071 407.376 90.853 407.233C90.6878 406.793 90.374 406.359 90.2143 406.068C90.0491 405.628 89.8894 405.337 89.7241 404.897C89.7185 404.748 89.5645 404.606 89.5589 404.457C89.3936 404.017 89.234 403.726 89.0687 403.286C88.909 402.995 88.8978 402.698 88.7437 402.555C88.5841 402.264 88.5728 401.967 88.4075 401.528L88.4019 401.379C88.3907 401.082 88.2311 400.791 88.2142 400.346C88.203 400.049 88.0489 399.906 88.0433 399.757C88.032 399.461 88.0265 399.312 87.8724 399.169C87.8612 398.872 87.8499 398.575 87.6958 398.433C87.6902 398.284 87.6902 398.284 87.6846 398.136C87.679 397.987 87.6734 397.839 87.6678 397.69C87.6565 397.394 87.6397 396.948 87.6285 396.651C86.8085 374.978 117.905 356.111 157.091 354.629C196.277 353.146 228.709 369.61 229.529 391.283C229.837 391.569 229.854 392.014 229.865 392.311Z" fill="url(#paint16_linear_101_78)"/>
<path d="M73.7298 497.077L29.2428 476.313L28.7093 462.211L73.2019 483.124L73.7298 497.077Z" fill="url(#paint17_linear_101_78)"/>
<path d="M47.3632 377.813L27.0883 364.458L26.5042 349.019L49.6499 363.604L47.3632 377.813Z" fill="url(#paint18_linear_101_78)"/>
<path d="M289.324 337.589L270.329 358.079L275.061 369.198L289.913 353.176L289.324 337.589Z" fill="url(#paint19_linear_101_78)"/>
<path d="M191.731 492.611L136.959 494.683L137.493 508.786L192.264 506.714L191.731 492.611Z" fill="url(#paint20_linear_101_78)"/>
<path d="M295.518 446.475L296.158 463.398L256.443 490.173L256.437 490.024L254.374 474.79L287.117 452.293L295.518 446.475Z" fill="url(#paint21_linear_101_78)"/>
</g>
<path d="M276.76 386.209L270.791 373.799L282.782 360.71L283.782 359.631L283.776 359.483L289.34 353.326L272.539 345.339L267.847 343.138L242.719 331.156L218.571 349.016L190.536 338.779L189.739 317.699L128.98 318.66L123.056 342.818L95.7677 352.324L70.1821 332.182L45.7823 351.242L45.1998 351.561L29.0303 364.214L29.0416 364.511L36.0773 369.745L36.2257 369.74L38.6679 371.431L49.9608 379.18L49.8348 379.78L47.7751 396.061L2.25721 399.121L3.85212 441.28L50.7565 439.506L51.5492 440.814L57.5827 450.992L58.0617 451.865L57.6276 452.179L48.1344 460.566L30.4502 476.398L30.4614 476.695L59.8411 491.044L60.1436 491.181L73.4639 497.516L73.618 497.658L107.512 478.091L136.275 483.99L137.675 509.209L192.891 507.12L199.591 483.825L200.249 481.57L231.212 474.898L231.8 474.727L255.943 492.099L256.234 491.939L269.976 481.905L271.135 481.118L296.002 462.636L295.997 462.487L280.46 448.655L272.159 441.387L282.609 426.869L318.53 425.51L316.985 384.688L276.76 386.209ZM156.851 344.215C196.037 342.733 228.47 359.196 229.289 380.87C229.301 381.167 229.318 381.612 229.329 381.909C229.334 382.057 229.34 382.206 229.346 382.354C229.351 382.503 229.351 382.503 229.357 382.651C229.368 382.948 229.379 383.245 229.237 383.399C229.248 383.696 229.253 383.844 229.111 383.998C229.116 384.147 229.127 384.444 228.985 384.598C228.996 384.895 228.864 385.346 228.876 385.642C228.876 385.642 228.876 385.642 228.881 385.791C228.892 386.088 228.755 386.39 228.624 386.841C228.635 387.138 228.498 387.441 228.355 387.595C228.223 388.046 228.086 388.348 227.954 388.799C227.96 388.948 227.817 389.102 227.823 389.25C227.691 389.701 227.554 390.004 227.422 390.455C227.291 390.905 227.011 391.362 226.874 391.665C226.731 391.819 226.736 391.967 226.594 392.121C226.314 392.578 226.182 393.029 225.902 393.485C216.992 409.431 190.844 421.57 159.673 422.749C128.503 423.929 101.512 413.8 91.4229 398.573C91.1092 398.139 90.9439 397.699 90.6302 397.265C90.4762 397.122 90.4705 396.973 90.3165 396.831C90.1512 396.391 89.8375 395.957 89.6778 395.665C89.5125 395.226 89.3529 394.934 89.1876 394.495C89.182 394.346 89.028 394.203 89.0224 394.055C88.8571 393.615 88.6973 393.324 88.5321 392.884C88.3724 392.593 88.3612 392.296 88.2072 392.153C88.0475 391.862 88.0363 391.565 87.871 391.125L87.8654 390.977C87.8542 390.68 87.6944 390.389 87.6776 389.943C87.6664 389.647 87.5124 389.504 87.5067 389.355C87.4955 389.058 87.4899 388.91 87.3359 388.767C87.3246 388.47 87.3134 388.173 87.1593 388.031C87.1537 387.882 87.1537 387.882 87.1481 387.734C87.1425 387.585 87.1368 387.437 87.1312 387.288C87.12 386.991 87.1032 386.546 87.0919 386.249C86.5689 364.565 117.665 345.698 156.851 344.215Z" fill="url(#paint22_linear_101_78)"/>
<path d="M106.698 448.988L134.751 447.927L136.133 484.444L107.815 478.529L106.698 448.988Z" fill="url(#paint23_linear_101_78)"/>
<path d="M72.3701 472.73L73.3248 497.966L60.0045 491.632L59.702 491.495L30.3222 477.146L29.3675 451.91L48.1437 461.011L59.1982 466.39L59.3466 466.385L72.3701 472.73Z" fill="url(#paint24_linear_101_78)"/>
<path d="M192.391 482.313L192.009 507.599L137.535 509.66L136.135 484.441L192.391 482.313Z" fill="url(#paint25_linear_101_78)"/>
<path d="M230.567 449.944L231.521 475.18L231.23 475.34L200.119 482.017L199.461 484.272L199.455 456.621L199.317 441.166L230.567 449.944Z" fill="url(#paint26_linear_101_78)"/>
<path d="M294.899 437.553L295.859 462.937L270.992 481.42L269.838 482.356L256.096 492.39L255.147 467.302L269.603 456.498L270.037 456.184L280.158 448.666L294.899 437.553Z" fill="url(#paint27_linear_101_78)"/>
<path d="M292.945 350.366L282.634 360.716L261.705 381.131L256.431 351.747L287.023 327.399L288.084 327.953L288.244 328.245L292.945 350.366Z" fill="url(#paint28_linear_101_78)"/>
<path d="M61.1495 360.627L57.7996 386.026L49.6913 379.94L38.2275 371.603L36.0822 369.9L35.9337 369.906L28.8981 364.672L28.8812 364.226L26.4534 339.343L45.6275 351.105L61.1495 360.627Z" fill="url(#paint29_linear_101_78)"/>
<path d="M275.803 360.975L269.834 348.565L272.69 345.484L288.103 328.548L288.532 328.086L288.229 327.949L287.019 327.4L241.911 305.916L217.763 323.776L189.728 313.539L188.93 292.459L128.171 293.42L122.247 317.578L94.959 327.084L69.3736 306.942L26.7543 339.476L45.3515 351.706L49.0094 354.094L46.8293 371.124L38.6768 371.73L38.5284 371.735L1.31703 374.332L2.91193 416.491L49.8163 414.717L57.27 427.071L42.3104 440.273L29.0815 452.071L29.5381 452.351L48.1602 461.31L59.3631 466.683L59.5116 466.678L72.8319 473.012L106.726 453.445L134.598 459.377L136.888 484.563L192.105 482.474L198.805 459.178L199.463 456.924L199.611 456.918L230.865 450.087L231.014 450.081L255.157 467.453L269.909 456.637L270.343 456.323L280.464 448.805L295.068 437.995L295.502 437.681L271.196 416.005L281.647 401.487L317.567 400.128L316.023 359.305L275.798 360.827L275.803 360.975ZM229.326 381.91C229.332 382.059 229.338 382.207 229.343 382.356C229.349 382.504 229.349 382.504 229.355 382.653C229.366 382.949 229.377 383.246 229.234 383.4C229.245 383.697 229.251 383.846 229.108 384C229.114 384.148 229.125 384.445 228.982 384.599C228.993 384.896 228.862 385.347 228.873 385.644C228.873 385.644 228.873 385.644 228.879 385.792C228.89 386.089 228.753 386.392 228.621 386.843C228.632 387.14 228.495 387.442 228.352 387.596C228.221 388.047 228.084 388.35 227.952 388.801C227.958 388.949 227.815 389.103 227.821 389.252C227.689 389.703 227.552 390.005 227.42 390.456C227.288 390.907 227.009 391.364 226.871 391.666C226.729 391.82 226.734 391.969 226.591 392.123C226.311 392.579 226.18 393.03 225.9 393.487C216.99 409.433 190.842 421.572 159.671 422.751C128.5 423.93 101.51 413.802 91.4206 398.574C91.1069 398.14 90.9416 397.7 90.6279 397.266C90.4738 397.123 90.4682 396.975 90.3142 396.832C90.1489 396.392 89.8351 395.958 89.6755 395.667C89.5102 395.227 89.3506 394.936 89.1853 394.496C89.1797 394.348 89.0256 394.205 89.02 394.057C88.8547 393.617 88.695 393.326 88.5297 392.886C88.3701 392.595 88.3589 392.298 88.2049 392.155C88.0452 391.864 88.034 391.567 87.8687 391.127L87.8631 390.978C87.8518 390.682 87.6921 390.39 87.6753 389.945C87.664 389.648 87.51 389.505 87.5044 389.357C87.4932 389.06 87.4876 388.911 87.3335 388.769C87.3223 388.472 87.311 388.175 87.157 388.032C87.1514 387.884 87.1514 387.884 87.1457 387.735C87.1401 387.587 87.1345 387.438 87.1289 387.29C87.1177 386.993 87.1008 386.548 87.0896 386.251C86.2697 364.577 117.366 345.711 156.552 344.228C195.738 342.746 228.17 359.209 228.99 380.882C229.452 381.311 229.464 381.608 229.326 381.91Z" fill="url(#paint30_linear_101_78)"/>
<path d="M229.446 381.02C229.614 385.474 228.436 389.681 226.212 393.779C216.123 378.551 189.133 368.423 157.962 369.602C126.791 370.781 100.643 382.92 91.7333 398.866C89.2068 394.948 87.7136 390.842 87.5451 386.389C86.7252 364.715 117.821 345.849 157.007 344.366C196.193 342.884 228.62 359.199 229.446 381.02Z" fill="url(#paint31_linear_101_78)"/>
<g opacity="0.8">
<g filter="url(#filter2_f_101_78)">
<path d="M277.09 194.628L275.088 166.282L247.225 167.336L243.075 158.708L245.061 156.565L255.776 144.791L256.074 144.47L255.765 144.481L254.924 144.1L223.665 129.159L206.876 141.577L187.385 134.459L186.831 119.804L144.588 120.472L140.47 137.267L121.498 143.876L103.709 129.873L73.8682 152.396L86.7979 160.899L89.3409 162.56L87.8253 174.4L82.1573 174.821L82.0541 174.825L56.183 176.63L57.2919 205.941L89.902 204.707L95.0841 213.296L84.6835 222.475L75.4862 230.678L75.8036 230.872L88.7505 237.101L96.5394 240.837L96.6425 240.833L105.903 245.237L129.468 231.633L149.465 235.734L150.129 253.279L188.828 251.815L193.486 235.619L193.943 234.051L194.046 234.047L215.775 229.298L215.879 229.294L232.664 241.372L232.866 241.261L242.921 233.852L243.222 233.634L250.259 228.407L260.412 220.891L260.393 220.375L254.193 214.925L243.819 205.706L251.085 195.612L277.09 194.628ZM214.92 182.097C214.924 182.201 214.928 182.304 214.932 182.407C214.936 182.51 214.936 182.51 214.939 182.613C214.947 182.82 214.955 183.026 214.856 183.133C214.864 183.34 214.868 183.443 214.768 183.55C214.772 183.653 214.78 183.86 214.681 183.967C214.688 184.173 214.597 184.487 214.605 184.693C214.605 184.693 214.605 184.693 214.609 184.796C214.616 185.003 214.521 185.213 214.43 185.527C214.437 185.733 214.342 185.943 214.243 186.05C214.151 186.364 214.056 186.574 213.964 186.888C213.968 186.991 213.869 187.098 213.873 187.201C213.781 187.515 213.686 187.725 213.594 188.039C213.503 188.352 213.308 188.67 213.213 188.88C213.114 188.987 213.118 189.09 213.018 189.197C212.824 189.515 212.732 189.828 212.537 190.146C206.343 201.232 188.163 209.672 166.492 210.492C144.821 211.311 126.056 204.27 119.041 193.683C118.823 193.381 118.708 193.075 118.49 192.773C118.383 192.674 118.379 192.571 118.272 192.472C118.157 192.166 117.939 191.864 117.828 191.662C117.713 191.356 117.602 191.153 117.487 190.848C117.483 190.744 117.376 190.645 117.372 190.542C117.257 190.236 117.146 190.034 117.032 189.728C116.921 189.526 116.913 189.319 116.806 189.22C116.695 189.017 116.687 188.811 116.572 188.505L116.568 188.402C116.56 188.196 116.449 187.993 116.437 187.683C116.43 187.477 116.323 187.378 116.319 187.274C116.311 187.068 116.307 186.965 116.2 186.866C116.192 186.659 116.184 186.453 116.077 186.353C116.073 186.25 116.073 186.25 116.069 186.147C116.065 186.044 116.062 185.941 116.058 185.837C116.05 185.631 116.038 185.321 116.03 185.115C115.46 170.047 137.08 156.93 164.324 155.899C191.567 154.868 214.116 166.315 214.686 181.383C215.004 181.577 215.011 181.784 214.92 182.097Z" fill="#443BE2" fill-opacity="0.5"/>
</g>
<path d="M276.614 180.064L275.54 151.682L247.677 152.736L243.527 144.108L245.513 141.965L256.228 130.191L256.526 129.87L256.316 129.774L255.475 129.393L224.113 114.456L207.324 126.873L187.833 119.756L187.279 105.101L145.036 105.768L140.918 122.564L121.946 129.173L104.157 115.17L74.5264 137.789L87.4561 146.291L89.9992 147.952L88.4835 159.792L82.8155 160.213L82.7124 160.217L56.8412 162.022L57.9501 191.333L90.5602 190.099L95.7423 198.689L85.3417 207.867L76.4423 215.749L76.1405 215.967L76.4579 216.162L89.4049 222.39L97.1937 226.126L97.2969 226.122L106.455 230.53L106.558 230.526L114.042 226.212L130.122 216.922L130.329 216.914L130.432 216.91L150.12 221.023L150.561 232.685L151.093 238.557L189.482 237.104L194.14 220.908L194.597 219.34L194.701 219.337L216.021 214.706L216.43 214.587L216.533 214.583L217.703 215.469L233.49 225.724L261.166 206.073L261.154 205.764L244.37 190.999L251.636 180.905L276.61 179.96L276.614 180.064ZM215.471 167.39C215.475 167.493 215.479 167.597 215.483 167.7C215.487 167.803 215.487 167.803 215.491 167.906C215.498 168.113 215.506 168.319 215.407 168.426C215.415 168.633 215.419 168.736 215.319 168.843C215.323 168.946 215.331 169.153 215.232 169.26C215.24 169.466 215.148 169.78 215.156 169.986C215.156 169.986 215.156 169.986 215.16 170.089C215.168 170.296 215.072 170.506 214.981 170.82C214.989 171.026 214.893 171.236 214.794 171.343C214.702 171.657 214.607 171.867 214.515 172.181C214.519 172.284 214.42 172.391 214.424 172.494C214.333 172.808 214.237 173.018 214.146 173.332C214.054 173.645 213.859 173.963 213.764 174.173C213.665 174.28 213.669 174.383 213.569 174.49C213.375 174.808 213.283 175.121 213.089 175.439C206.894 186.525 188.715 194.965 167.043 195.784C145.372 196.604 126.607 189.563 119.593 178.976C119.374 178.674 119.259 178.368 119.041 178.066C118.934 177.967 118.93 177.864 118.823 177.765C118.708 177.459 118.49 177.157 118.379 176.955C118.264 176.649 118.153 176.446 118.038 176.141C118.035 176.037 117.927 175.938 117.924 175.835C117.809 175.529 117.698 175.327 117.583 175.021C117.472 174.818 117.464 174.612 117.357 174.513C117.246 174.31 117.238 174.104 117.123 173.798L117.119 173.695C117.111 173.488 117 173.286 116.989 172.976C116.981 172.77 116.874 172.671 116.87 172.567C116.862 172.361 116.858 172.258 116.751 172.159C116.743 171.952 116.735 171.746 116.628 171.646C116.624 171.543 116.624 171.543 116.62 171.44C116.617 171.337 116.613 171.234 116.609 171.13C116.601 170.924 116.589 170.614 116.581 170.408C116.011 155.34 137.631 142.223 164.875 141.192C192.119 140.161 214.667 151.607 215.237 166.676C215.452 166.874 215.463 167.184 215.471 167.39Z" fill="url(#paint32_linear_101_78)"/>
<path d="M106.92 240.23L75.9904 225.794L75.6195 215.989L106.553 230.529L106.92 240.23Z" fill="url(#paint33_linear_101_78)"/>
<path d="M88.5884 157.313L74.4924 148.027L74.0863 137.294L90.1782 147.434L88.5884 157.313Z" fill="url(#paint34_linear_101_78)"/>
<path d="M256.811 129.345L243.606 143.591L246.895 151.321L257.221 140.182L256.811 129.345Z" fill="url(#paint35_linear_101_78)"/>
<path d="M188.961 237.127L150.881 238.567L151.252 248.372L189.332 246.931L188.961 237.127Z" fill="url(#paint36_linear_101_78)"/>
<path d="M261.117 205.048L261.562 216.814L233.95 235.429L233.946 235.326L232.512 224.734L255.276 209.093L261.117 205.048Z" fill="url(#paint37_linear_101_78)"/>
</g>
<path d="M248.073 163.15L243.923 154.522L252.26 145.421L252.955 144.671L252.951 144.568L256.819 140.288L245.138 134.735L241.876 133.205L224.406 124.874L207.617 137.291L188.126 130.174L187.572 115.518L145.329 116.186L141.211 132.982L122.239 139.591L104.451 125.588L87.4867 138.839L87.0817 139.061L75.8399 147.858L75.8477 148.064L80.7392 151.703L80.8424 151.699L82.5404 152.875L90.3917 158.263L90.3041 158.68L88.8721 169.999L57.226 172.127L58.3348 201.438L90.9449 200.204L91.496 201.113L95.6908 208.189L96.0238 208.797L95.722 209.015L89.1219 214.846L76.827 225.853L76.8348 226.06L97.261 236.036L97.4713 236.131L106.732 240.535L106.839 240.634L130.404 227.03L150.401 231.131L151.374 248.665L189.764 247.213L194.421 231.016L194.879 229.449L216.406 224.81L216.815 224.692L233.6 236.769L233.802 236.658L243.356 229.682L244.162 229.135L261.451 216.285L261.447 216.182L250.646 206.565L244.874 201.512L252.14 191.419L277.113 190.474L276.039 162.092L248.073 163.15ZM164.707 133.954C191.951 132.923 214.499 144.369 215.069 159.437C215.077 159.644 215.089 159.954 215.097 160.16C215.101 160.263 215.104 160.366 215.108 160.47C215.112 160.573 215.112 160.573 215.116 160.676C215.124 160.882 215.132 161.089 215.032 161.196C215.04 161.402 215.044 161.506 214.945 161.613C214.949 161.716 214.957 161.922 214.857 162.029C214.865 162.236 214.774 162.549 214.781 162.756C214.781 162.756 214.781 162.756 214.785 162.859C214.793 163.065 214.698 163.276 214.606 163.589C214.614 163.796 214.519 164.006 214.419 164.113C214.328 164.427 214.233 164.637 214.141 164.95C214.145 165.054 214.046 165.161 214.05 165.264C213.958 165.577 213.863 165.788 213.771 166.101C213.68 166.415 213.485 166.732 213.39 166.943C213.29 167.05 213.294 167.153 213.195 167.26C213 167.577 212.909 167.891 212.714 168.208C206.52 179.295 188.34 187.734 166.669 188.554C144.998 189.374 126.233 182.332 119.218 171.745C119 171.444 118.885 171.138 118.667 170.836C118.56 170.737 118.556 170.634 118.449 170.534C118.334 170.229 118.116 169.927 118.005 169.724C117.89 169.418 117.779 169.216 117.664 168.91C117.66 168.807 117.553 168.708 117.549 168.605C117.434 168.299 117.323 168.096 117.208 167.791C117.097 167.588 117.089 167.382 116.982 167.282C116.871 167.08 116.864 166.873 116.749 166.568L116.745 166.465C116.737 166.258 116.626 166.056 116.614 165.746C116.606 165.54 116.499 165.44 116.495 165.337C116.488 165.131 116.484 165.027 116.377 164.928C116.369 164.722 116.361 164.515 116.254 164.416C116.25 164.313 116.25 164.313 116.246 164.21C116.242 164.106 116.238 164.003 116.234 163.9C116.227 163.694 116.215 163.384 116.207 163.178C115.843 148.101 137.463 134.984 164.707 133.954Z" fill="url(#paint38_linear_101_78)"/>
<path d="M129.838 206.798L149.342 206.06L150.303 231.449L130.615 227.336L129.838 206.798Z" fill="url(#paint39_linear_101_78)"/>
<path d="M105.972 223.304L106.636 240.85L97.3749 236.446L97.1645 236.35L76.7383 226.374L76.0746 208.829L89.1287 215.156L96.8143 218.897L96.9175 218.893L105.972 223.304Z" fill="url(#paint40_linear_101_78)"/>
<path d="M189.417 229.967L189.152 247.547L151.278 248.98L150.305 231.446L189.417 229.967Z" fill="url(#paint41_linear_101_78)"/>
<path d="M215.958 207.463L216.622 225.008L216.419 225.119L194.789 229.762L194.332 231.329L194.328 212.105L194.232 201.36L215.958 207.463Z" fill="url(#paint42_linear_101_78)"/>
<path d="M260.684 198.845L261.352 216.494L244.063 229.343L243.261 229.994L233.707 236.97L233.047 219.528L243.097 212.016L243.399 211.798L250.435 206.571L260.684 198.845Z" fill="url(#paint43_linear_101_78)"/>
<path d="M259.326 138.231L252.157 145.426L237.606 159.62L233.94 139.191L255.208 122.263L255.946 122.649L256.057 122.851L259.326 138.231Z" fill="url(#paint44_linear_101_78)"/>
<path d="M98.1734 145.365L95.8444 163.023L90.2072 158.792L82.237 152.996L80.7455 151.812L80.6422 151.816L75.7508 148.177L75.7391 147.867L74.0511 130.567L87.3819 138.745L98.1734 145.365Z" fill="url(#paint45_linear_101_78)"/>
<path d="M247.409 145.607L243.259 136.979L245.245 134.837L255.961 123.062L256.258 122.741L256.048 122.645L255.207 122.264L223.845 107.327L207.057 119.745L187.565 112.627L187.011 97.9716L144.768 98.6395L140.65 115.435L121.678 122.044L103.89 108.041L74.2588 130.66L87.1884 139.162L89.7315 140.823L88.2159 152.663L82.5479 153.084L82.4447 153.088L56.5736 154.894L57.6825 184.204L90.2926 182.971L95.4747 191.56L85.0741 200.738L75.8767 208.941L76.1942 209.136L89.1411 215.364L96.9299 219.1L97.0332 219.096L106.294 223.5L129.859 209.896L149.237 214.021L150.829 231.531L189.218 230.079L193.876 213.882L194.334 212.315L194.437 212.311L216.166 207.561L216.269 207.557L233.055 219.635L243.311 212.116L243.613 211.897L250.649 206.67L260.803 199.155L261.105 198.937L244.206 183.866L251.472 173.772L276.445 172.828L275.372 144.446L247.405 145.504L247.409 145.607ZM215.096 160.162C215.1 160.265 215.104 160.369 215.108 160.472C215.112 160.575 215.112 160.575 215.116 160.678C215.124 160.885 215.131 161.091 215.032 161.198C215.04 161.404 215.044 161.508 214.945 161.615C214.949 161.718 214.956 161.924 214.857 162.032C214.865 162.238 214.773 162.551 214.781 162.758C214.781 162.758 214.781 162.758 214.785 162.861C214.793 163.068 214.697 163.278 214.606 163.591C214.614 163.798 214.518 164.008 214.419 164.115C214.328 164.429 214.232 164.639 214.141 164.953C214.145 165.056 214.045 165.163 214.049 165.266C213.958 165.58 213.862 165.79 213.771 166.103C213.679 166.417 213.485 166.734 213.389 166.945C213.29 167.052 213.294 167.155 213.195 167.262C213 167.58 212.909 167.893 212.714 168.211C206.519 179.297 188.34 187.736 166.669 188.556C144.997 189.376 126.232 182.334 119.218 171.748C119 171.446 118.885 171.14 118.667 170.838C118.56 170.739 118.556 170.636 118.449 170.536C118.334 170.231 118.116 169.929 118.005 169.726C117.89 169.421 117.779 169.218 117.664 168.912C117.66 168.809 117.553 168.71 117.549 168.607C117.434 168.301 117.323 168.098 117.208 167.793C117.097 167.59 117.089 167.384 116.982 167.285C116.871 167.082 116.863 166.876 116.748 166.57L116.744 166.467C116.737 166.26 116.626 166.058 116.614 165.748C116.606 165.542 116.499 165.442 116.495 165.339C116.487 165.133 116.483 165.03 116.376 164.93C116.368 164.724 116.361 164.517 116.254 164.418C116.25 164.315 116.25 164.315 116.246 164.212C116.242 164.109 116.238 164.005 116.234 163.902C116.226 163.696 116.214 163.386 116.207 163.18C115.637 148.111 137.256 134.994 164.5 133.964C191.744 132.933 214.293 144.379 214.863 159.447C215.184 159.745 215.192 159.952 215.096 160.162Z" fill="url(#paint46_linear_101_78)"/>
<path d="M215.179 159.544C215.296 162.64 214.477 165.565 212.931 168.414C205.917 157.828 187.152 150.786 165.48 151.606C143.809 152.425 125.63 160.865 119.435 171.951C117.679 169.227 116.64 166.373 116.523 163.276C115.953 148.208 137.573 135.091 164.817 134.06C192.061 133.03 214.605 144.373 215.179 159.544Z" fill="url(#paint47_linear_101_78)"/>
<defs>
<filter id="filter0_f_101_78" x="46.183" y="553.835" width="240.908" height="153.476" filterUnits="userSpaceOnUse" color-interpolation-filters="sRGB">
<feFlood flood-opacity="0" result="BackgroundImageFix"/>
<feBlend mode="normal" in="SourceGraphic" in2="BackgroundImageFix" result="shape"/>
<feGaussianBlur stdDeviation="5" result="effect1_foregroundBlur_101_78"/>
</filter>
<filter id="filter1_f_101_78" x="-9.24524" y="313.862" width="337.74" height="211.983" filterUnits="userSpaceOnUse" color-interpolation-filters="sRGB">
<feFlood flood-opacity="0" result="BackgroundImageFix"/>
<feBlend mode="normal" in="SourceGraphic" in2="BackgroundImageFix" result="shape"/>
<feGaussianBlur stdDeviation="5" result="effect1_foregroundBlur_101_78"/>
</filter>
<filter id="filter2_f_101_78" x="46.183" y="109.804" width="240.908" height="153.476" filterUnits="userSpaceOnUse" color-interpolation-filters="sRGB">
<feFlood flood-opacity="0" result="BackgroundImageFix"/>
<feBlend mode="normal" in="SourceGraphic" in2="BackgroundImageFix" result="shape"/>
<feGaussianBlur stdDeviation="5" result="effect1_foregroundBlur_101_78"/>
</filter>
<linearGradient id="paint0_linear_101_78" x1="57.2208" y1="619.624" x2="276.128" y2="611.342" gradientUnits="userSpaceOnUse">
<stop stop-color="#443BE2"/>
<stop offset="1" stop-color="#FCFFFF"/>
</linearGradient>
<linearGradient id="paint1_linear_101_78" x1="76.2232" y1="671.053" x2="130.943" y2="675.124" gradientUnits="userSpaceOnUse">
<stop stop-color="#443BBC"/>
<stop offset="0.9098" stop-color="#9D9AF0"/>
</linearGradient>
<linearGradient id="paint2_linear_101_78" x1="74.4916" y1="591.571" x2="90.1278" y2="590.979" gradientUnits="userSpaceOnUse">
<stop stop-color="#443BBC"/>
<stop offset="1" stop-color="#9D9AF0"/>
</linearGradient>
<linearGradient id="paint3_linear_101_78" x1="245.648" y1="582.12" x2="256.556" y2="586.054" gradientUnits="userSpaceOnUse">
<stop stop-color="#443BBC"/>
<stop offset="1" stop-color="#9D9AF0"/>
</linearGradient>
<linearGradient id="paint4_linear_101_78" x1="151.552" y1="679.709" x2="226.979" y2="708.513" gradientUnits="userSpaceOnUse">
<stop stop-color="#443BBC"/>
<stop offset="0.7722" stop-color="#9D9AF0"/>
</linearGradient>
<linearGradient id="paint5_linear_101_78" x1="232.38" y1="664.878" x2="279.609" y2="663.092" gradientUnits="userSpaceOnUse">
<stop stop-color="#443BBC"/>
<stop offset="0.9511" stop-color="#9D9AF0"/>
</linearGradient>
<linearGradient id="paint6_linear_101_78" x1="57.5972" y1="630.045" x2="276.504" y2="621.764" gradientUnits="userSpaceOnUse">
<stop stop-color="#443BBC"/>
<stop offset="1" stop-color="#9D9AF0"/>
</linearGradient>
<linearGradient id="paint7_linear_101_78" x1="160.383" y1="662.374" x2="121.314" y2="663.852" gradientUnits="userSpaceOnUse">
<stop offset="0.0392995" stop-color="#443BBC"/>
<stop offset="1" stop-color="#9D9AF0"/>
</linearGradient>
<linearGradient id="paint8_linear_101_78" x1="76.6975" y1="669.418" x2="132.579" y2="667.304" gradientUnits="userSpaceOnUse">
<stop stop-color="#443BBC"/>
<stop offset="0.8819" stop-color="#9D9AF0"/>
</linearGradient>
<linearGradient id="paint9_linear_101_78" x1="150.659" y1="684.273" x2="194.671" y2="682.608" gradientUnits="userSpaceOnUse">
<stop stop-color="#443BBC"/>
<stop offset="0.9657" stop-color="#9D9AF0"/>
</linearGradient>
<linearGradient id="paint10_linear_101_78" x1="188.016" y1="660.63" x2="218.596" y2="659.473" gradientUnits="userSpaceOnUse">
<stop offset="0.0544749" stop-color="#443BBC"/>
<stop offset="1" stop-color="#9D9AF0"/>
</linearGradient>
<linearGradient id="paint11_linear_101_78" x1="233.022" y1="662.499" x2="270.259" y2="661.09" gradientUnits="userSpaceOnUse">
<stop stop-color="#443BBC"/>
<stop offset="1" stop-color="#9D9AF0"/>
</linearGradient>
<linearGradient id="paint12_linear_101_78" x1="234.027" y1="585.436" x2="259.435" y2="584.474" gradientUnits="userSpaceOnUse">
<stop stop-color="#443BBC"/>
<stop offset="1" stop-color="#9D9AF0"/>
</linearGradient>
<linearGradient id="paint13_linear_101_78" x1="74.7255" y1="591.231" x2="98.1797" y2="590.344" gradientUnits="userSpaceOnUse">
<stop stop-color="#443BBC"/>
<stop offset="1" stop-color="#9D9AF0"/>
</linearGradient>
<linearGradient id="paint14_linear_101_78" x1="56.9313" y1="612.455" x2="275.838" y2="604.174" gradientUnits="userSpaceOnUse">
<stop stop-color="#443BE2"/>
<stop offset="0.9281" stop-color="#FCFFFF"/>
</linearGradient>
<linearGradient id="paint15_linear_101_78" x1="116.085" y1="597.988" x2="214.789" y2="594.254" gradientUnits="userSpaceOnUse">
<stop stop-color="#443BBC"/>
<stop offset="1" stop-color="#9D9AF0"/>
</linearGradient>
<linearGradient id="paint16_linear_101_78" x1="2.2477" y1="404.108" x2="317.11" y2="392.197" gradientUnits="userSpaceOnUse">
<stop stop-color="#443BE2"/>
<stop offset="1" stop-color="#FCFFFF"/>
</linearGradient>
<linearGradient id="paint17_linear_101_78" x1="29.5776" y1="478.079" x2="108.283" y2="483.935" gradientUnits="userSpaceOnUse">
<stop stop-color="#443BBC"/>
<stop offset="0.9098" stop-color="#9D9AF0"/>
</linearGradient>
<linearGradient id="paint18_linear_101_78" x1="27.0871" y1="363.756" x2="49.5774" y2="362.905" gradientUnits="userSpaceOnUse">
<stop stop-color="#443BBC"/>
<stop offset="1" stop-color="#9D9AF0"/>
</linearGradient>
<linearGradient id="paint19_linear_101_78" x1="273.267" y1="350.165" x2="288.957" y2="355.823" gradientUnits="userSpaceOnUse">
<stop stop-color="#443BBC"/>
<stop offset="1" stop-color="#9D9AF0"/>
</linearGradient>
<linearGradient id="paint20_linear_101_78" x1="137.924" y1="490.527" x2="246.414" y2="531.957" gradientUnits="userSpaceOnUse">
<stop stop-color="#443BBC"/>
<stop offset="0.7722" stop-color="#9D9AF0"/>
</linearGradient>
<linearGradient id="paint21_linear_101_78" x1="254.186" y1="469.199" x2="322.116" y2="466.629" gradientUnits="userSpaceOnUse">
<stop stop-color="#443BBC"/>
<stop offset="0.9511" stop-color="#9D9AF0"/>
</linearGradient>
<linearGradient id="paint22_linear_101_78" x1="2.79109" y1="419.096" x2="317.653" y2="407.184" gradientUnits="userSpaceOnUse">
<stop stop-color="#443BBC"/>
<stop offset="1" stop-color="#9D9AF0"/>
</linearGradient>
<linearGradient id="paint23_linear_101_78" x1="150.631" y1="465.594" x2="94.4365" y2="467.72" gradientUnits="userSpaceOnUse">
<stop offset="0.0392995" stop-color="#443BBC"/>
<stop offset="1" stop-color="#9D9AF0"/>
</linearGradient>
<linearGradient id="paint24_linear_101_78" x1="30.2634" y1="475.726" x2="110.64" y2="472.685" gradientUnits="userSpaceOnUse">
<stop stop-color="#443BBC"/>
<stop offset="0.8819" stop-color="#9D9AF0"/>
</linearGradient>
<linearGradient id="paint25_linear_101_78" x1="136.645" y1="497.091" x2="199.948" y2="494.697" gradientUnits="userSpaceOnUse">
<stop stop-color="#443BBC"/>
<stop offset="0.9657" stop-color="#9D9AF0"/>
</linearGradient>
<linearGradient id="paint26_linear_101_78" x1="190.377" y1="463.084" x2="234.361" y2="461.42" gradientUnits="userSpaceOnUse">
<stop offset="0.0544749" stop-color="#443BBC"/>
<stop offset="1" stop-color="#9D9AF0"/>
</linearGradient>
<linearGradient id="paint27_linear_101_78" x1="255.112" y1="465.777" x2="308.671" y2="463.75" gradientUnits="userSpaceOnUse">
<stop stop-color="#443BBC"/>
<stop offset="1" stop-color="#9D9AF0"/>
</linearGradient>
<linearGradient id="paint28_linear_101_78" x1="256.556" y1="354.931" x2="293.103" y2="353.548" gradientUnits="userSpaceOnUse">
<stop stop-color="#443BBC"/>
<stop offset="1" stop-color="#9D9AF0"/>
</linearGradient>
<linearGradient id="paint29_linear_101_78" x1="27.4234" y1="363.267" x2="61.1585" y2="361.991" gradientUnits="userSpaceOnUse">
<stop stop-color="#443BBC"/>
<stop offset="1" stop-color="#9D9AF0"/>
</linearGradient>
<linearGradient id="paint30_linear_101_78" x1="1.83149" y1="393.794" x2="316.694" y2="381.882" gradientUnits="userSpaceOnUse">
<stop stop-color="#443BE2"/>
<stop offset="0.9281" stop-color="#FCFFFF"/>
</linearGradient>
<linearGradient id="paint31_linear_101_78" x1="86.9151" y1="372.984" x2="228.884" y2="367.613" gradientUnits="userSpaceOnUse">
<stop stop-color="#443BBC"/>
<stop offset="1" stop-color="#9D9AF0"/>
</linearGradient>
<linearGradient id="paint32_linear_101_78" x1="57.2208" y1="175.592" x2="276.128" y2="167.311" gradientUnits="userSpaceOnUse">
<stop stop-color="#443BE2"/>
<stop offset="1" stop-color="#FCFFFF"/>
</linearGradient>
<linearGradient id="paint33_linear_101_78" x1="76.2232" y1="227.022" x2="130.943" y2="231.093" gradientUnits="userSpaceOnUse">
<stop stop-color="#443BBC"/>
<stop offset="0.9098" stop-color="#9D9AF0"/>
</linearGradient>
<linearGradient id="paint34_linear_101_78" x1="74.4916" y1="147.539" x2="90.1278" y2="146.948" gradientUnits="userSpaceOnUse">
<stop stop-color="#443BBC"/>
<stop offset="1" stop-color="#9D9AF0"/>
</linearGradient>
<linearGradient id="paint35_linear_101_78" x1="245.648" y1="138.089" x2="256.556" y2="142.022" gradientUnits="userSpaceOnUse">
<stop stop-color="#443BBC"/>
<stop offset="1" stop-color="#9D9AF0"/>
</linearGradient>
<linearGradient id="paint36_linear_101_78" x1="151.552" y1="235.678" x2="226.979" y2="264.482" gradientUnits="userSpaceOnUse">
<stop stop-color="#443BBC"/>
<stop offset="0.7722" stop-color="#9D9AF0"/>
</linearGradient>
<linearGradient id="paint37_linear_101_78" x1="232.38" y1="220.847" x2="279.609" y2="219.06" gradientUnits="userSpaceOnUse">
<stop stop-color="#443BBC"/>
<stop offset="0.9511" stop-color="#9D9AF0"/>
</linearGradient>
<linearGradient id="paint38_linear_101_78" x1="57.5972" y1="186.014" x2="276.504" y2="177.733" gradientUnits="userSpaceOnUse">
<stop stop-color="#443BBC"/>
<stop offset="1" stop-color="#9D9AF0"/>
</linearGradient>
<linearGradient id="paint39_linear_101_78" x1="160.383" y1="218.343" x2="121.314" y2="219.821" gradientUnits="userSpaceOnUse">
<stop offset="0.0392995" stop-color="#443BBC"/>
<stop offset="1" stop-color="#9D9AF0"/>
</linearGradient>
<linearGradient id="paint40_linear_101_78" x1="76.6975" y1="225.387" x2="132.579" y2="223.273" gradientUnits="userSpaceOnUse">
<stop stop-color="#443BBC"/>
<stop offset="0.8819" stop-color="#9D9AF0"/>
</linearGradient>
<linearGradient id="paint41_linear_101_78" x1="150.659" y1="240.241" x2="194.671" y2="238.576" gradientUnits="userSpaceOnUse">
<stop stop-color="#443BBC"/>
<stop offset="0.9657" stop-color="#9D9AF0"/>
</linearGradient>
<linearGradient id="paint42_linear_101_78" x1="188.016" y1="216.599" x2="218.596" y2="215.442" gradientUnits="userSpaceOnUse">
<stop offset="0.0544749" stop-color="#443BBC"/>
<stop offset="1" stop-color="#9D9AF0"/>
</linearGradient>
<linearGradient id="paint43_linear_101_78" x1="233.022" y1="218.468" x2="270.259" y2="217.059" gradientUnits="userSpaceOnUse">
<stop stop-color="#443BBC"/>
<stop offset="1" stop-color="#9D9AF0"/>
</linearGradient>
<linearGradient id="paint44_linear_101_78" x1="234.027" y1="141.404" x2="259.435" y2="140.443" gradientUnits="userSpaceOnUse">
<stop stop-color="#443BBC"/>
<stop offset="1" stop-color="#9D9AF0"/>
</linearGradient>
<linearGradient id="paint45_linear_101_78" x1="74.7255" y1="147.2" x2="98.1797" y2="146.313" gradientUnits="userSpaceOnUse">
<stop stop-color="#443BBC"/>
<stop offset="1" stop-color="#9D9AF0"/>
</linearGradient>
<linearGradient id="paint46_linear_101_78" x1="56.9313" y1="168.424" x2="275.838" y2="160.142" gradientUnits="userSpaceOnUse">
<stop stop-color="#443BE2"/>
<stop offset="0.9281" stop-color="#FCFFFF"/>
</linearGradient>
<linearGradient id="paint47_linear_101_78" x1="116.085" y1="153.957" x2="214.789" y2="150.223" gradientUnits="userSpaceOnUse">
<stop stop-color="#443BBC"/>
<stop offset="1" stop-color="#9D9AF0"/>
</linearGradient>
</defs>
</svg>
