<svg width="147" height="109" viewBox="0 0 147 109" fill="none" xmlns="http://www.w3.org/2000/svg">
<path d="M137.659 42.5032L138.491 58.4974C138.517 59.9484 138.496 61.2293 138.137 62.6011C134.418 76.535 108.004 88.5324 75.4063 90.3427C42.8089 92.1529 15.1809 83.3387 9.79504 70.0223C9.26102 68.7077 8.89665 67.3476 8.91696 66.0667L8.08491 50.0724C7.95595 47.556 8.59647 45.1978 9.74577 42.7032L36.0885 41.2934C46.206 37.6713 58.6446 35.2495 72.0476 34.3914C85.4961 33.7034 98.122 34.6934 108.601 37.1698L134.944 35.76C136.723 37.652 137.53 39.9867 137.659 42.5032Z" fill="url(#paint0_linear_326_713)"/>
<path d="M137.656 42.5096C138.521 57.9483 110.188 72.2821 74.3558 74.2303C38.569 76.3485 8.73134 65.3931 7.82087 49.7843C7.6919 47.2678 8.33242 44.9096 9.48173 42.4151C16.1673 30.0551 40.8652 19.7931 70.906 17.939C100.992 16.2549 126.763 23.5626 134.804 35.2564C136.72 37.6584 137.527 39.9931 137.656 42.5096Z" fill="url(#paint1_linear_326_713)"/>
<path d="M42.903 46.3986C40.6072 46.6494 38.6505 46.8092 36.4787 46.8445C35.5852 46.9017 34.6461 46.7889 34.0007 46.4152C32.9705 45.9624 32.8212 44.7269 33.9173 44.0687C34.7197 43.6715 35.5677 43.4443 36.4156 43.2171C38.5419 43.0118 40.4985 42.852 42.8399 42.7712C42.6325 40.6402 42.6402 38.6338 42.4783 36.6728C42.329 35.4373 42.7011 34.7909 43.8882 34.4728C44.7362 34.2456 45.7994 34.143 46.7385 34.2558C48.0623 34.4477 48.4141 35.0823 48.5634 36.3178C48.8417 40.0698 49.0743 43.6517 49.3526 47.4037C49.4816 49.9202 50.661 51.6085 52.8125 52.8542C57.0699 55.1755 63.064 54.4805 66.8027 51.4743C68.4405 50.1244 69.0936 48.4916 68.8862 46.3606C68.7242 44.3997 68.5623 42.4387 68.4004 40.4777C68.1348 37.4512 69.2842 34.9566 71.5092 33.0849C77.4731 28.207 87.8891 27.056 94.6828 30.7021C97.219 32.0269 99.292 33.658 99.8968 36.5936C100.125 37.4437 100.228 38.5092 100.378 39.7447C101.995 39.6757 103.397 39.4822 105.015 39.4132C106.632 39.3442 108.42 39.2298 110.037 39.1608C110.761 39.1491 111.53 39.3073 112.13 39.511C113.16 39.9638 113.31 41.1994 112.383 41.8121C111.581 42.2093 110.733 42.4365 109.839 42.4937C106.819 42.7562 103.754 42.8487 100.565 43.1566C100.61 43.3266 100.486 43.5421 100.577 43.8821C100.648 45.5031 100.719 47.124 101.005 48.8696C101.109 49.9351 101.258 51.1706 99.9468 51.7041C98.466 52.2831 97.0636 52.4767 95.7271 51.5593C95.2969 51.3101 95.1147 50.6301 95.1476 50.0746C94.8238 46.1526 94.5456 42.4007 94.3914 38.4332C94.2295 36.4722 93.3107 35.0785 91.7591 34.0365C86.8436 30.616 79.9232 31.9237 76.2755 35.2699C75.101 36.3135 74.4023 37.7762 74.6882 39.5217C74.9412 41.8227 74.979 43.9992 75.232 46.3002C75.5305 48.7712 74.5838 50.6649 72.8676 52.4002C70.2704 54.9183 67.0151 56.3372 63.4081 57.1215C58.2746 58.3148 53.4552 57.9662 48.7675 55.3957C47.6917 54.7729 46.5704 53.9801 45.5731 52.9718C44.1456 51.7144 43.5204 50.0597 43.3585 48.0987C43.0523 47.6341 42.9156 47.1241 42.903 46.3986Z" fill="url(#paint2_linear_326_713)"/>
<defs>
<linearGradient id="paint0_linear_326_713" x1="8.9755" y1="65.9679" x2="138.657" y2="58.4425" gradientUnits="userSpaceOnUse">
<stop stop-color="#443BBC"/>
<stop offset="0.8819" stop-color="#9D9AF0"/>
</linearGradient>
<linearGradient id="paint1_linear_326_713" x1="-3.95044" y1="50.6125" x2="163.001" y2="40.9243" gradientUnits="userSpaceOnUse">
<stop stop-color="#443BE2"/>
<stop offset="1" stop-color="#FCFFFF"/>
</linearGradient>
<linearGradient id="paint2_linear_326_713" x1="33.0981" y1="45.7196" x2="113.046" y2="40.3043" gradientUnits="userSpaceOnUse">
<stop stop-color="#443BBC"/>
<stop offset="0.8819" stop-color="#9D9AF0"/>
</linearGradient>
</defs>
</svg>
